<svg xmlns="http://www.w3.org/2000/svg" viewBox="0 0 48 48" width="48" height="48">
    <path fill="#25D366" d="M24.002 0C10.736 0 0 10.736 0 24.002c0 4.48 1.232 8.66 3.36 12.224L0 48l12.024-3.184A23.878 23.878 0 0 0 24.002 48C37.268 48 48 37.264 48 24.002S37.268 0 24.002 0z"/>
    <path fill="#fff" d="M35.912 33.398c-.672 1.88-3.312 3.44-5.456 3.832-1.464.272-3.376.488-9.816-2.092C14.6 32.742 10.3 27.2 9.64 26.328c-.668-.872-3.168-4.2-3.168-8.008 0-3.808 1.984-5.68 2.688-6.456.672-.752 1.488-.944 1.992-.944.504 0 1.008.008 1.448.032.464.024 1.088-.176 1.704 1.312.624 1.512 2.112 5.216 2.296 5.592.184.376.308.816.064 1.312-.244.496-.368.72-.736 1.104-.368.384-.768.856-1.104 1.152-.368.296-.752.616-.32 1.208.432.592 1.912 3.144 4.104 5.088 2.824 2.504 5.208 3.272 5.952 3.632.744.36 1.184.304 1.616-.184.432-.488 1.872-2.184 2.368-2.936.496-.752 1.008-.624 1.704-.376.696.248 4.408 2.072 5.16 2.448.752.376 1.256.56 1.44.872.184.312.184 1.816-.488 3.696z"/>
</svg>
